<svg data-noselect="" viewBox="0 0 343 321" width="343" height="321" preserveAspectRatio="none" version="1.1" xmlns="http://www.w3.org/2000/svg" style="background: rgba(255, 255, 255, 0)"><defs></defs> <g id="shape_tvOBZH4xXR" transform="matrix(1,0,0,1,30,30)" filter="" style="cursor: move; opacity: 1"><g transform="matrix(1.8,0,0,1.9,-97.7,-112.1)"><rect fill="rgba(0, 0, 0, 0)" width="303" height="246" x="-20.6" y="6.3"></rect><svg version="1.1" id="图层_1" xmlns="http://www.w3.org/2000/svg" xmlns:xlink="http://www.w3.org/1999/xlink" x="-10.6px" y="16.3px" width="283" height="226" viewBox="0 0 283.46 226.77" style="enable-background: new 0 0 283.46 226.77" xml:space="preserve" preserveAspectRatio="none" data-parent="shape_tvOBZH4xXR">
<g>
	
	<linearGradient id="SVGID_1_" gradientUnits="userSpaceOnUse" x1="7.2872" y1="-7.4709" x2="70.6848" y2="-7.4709" gradientTransform="matrix(0.9421 -0.386 -0.3457 -.9752 116.4593 118.897)">
		<stop offset="0" style="stop-color: #E66533"></stop>
		<stop offset="0.4" style="stop-color: #DC2E80"></stop>
		<stop offset="0.4" style="stop-color: #D63081"></stop>
		<stop offset="0.6" style="stop-color: #C23383"></stop>
		<stop offset="0.8" style="stop-color: #A03888"></stop>
		<stop offset="1" style="stop-color: #683A8D"></stop>
		<stop offset="1" style="stop-color: #623A8E"></stop>
	</linearGradient>
	<path style="fill: url(#SVGID_1_)" d="M 126.9 126.1 c 0 0 20.1 23.8 33.7 11.8 c 13.6 -12 25.3 -44 19.3 -54.9 c -6 -11 -20.8 -8.7 -20.6 9.7 C 159.3 105.5 152.5 146.8 126.9 126.1 z"></path>
	
	<linearGradient id="SVGID_2_" gradientUnits="userSpaceOnUse" x1="101.165" y1="-39.6338" x2="176.5155" y2="-39.6338" gradientTransform="matrix(-0.9666 -0.2564 0.2698 -1.017 278.0613 107.6624)">
		<stop offset="0" style="stop-color: #F2C222"></stop>
		<stop offset="0.2" style="stop-color: #F1BD24"></stop>
		<stop offset="0.4" style="stop-color: #EEAD27"></stop>
		<stop offset="0.7" style="stop-color: #EA912A"></stop>
		<stop offset="1" style="stop-color: #E66A2B"></stop>
	</linearGradient>
	<path style="fill: url(#SVGID_2_)" d="M 167.5 129.8 c 0 0 -12.8 24.6 -35.9 16.7 c -25 -8.6 -35.2 -50.7 -29.2 -64.3 c 6 -13.6 27.2 -12.3 27.4 10.8 C 129.9 113.4 139.7 157.7 167.5 129.8 z"></path>
</g>
</svg></g> <!----></g><g id="shapge_a90WL0fUjT" transform="translate(98,262) rotate(0,0,0) scale(1,1)" filter="" style="cursor: move; opacity: 1"><g><svg xmlns="http://www.w3.org/2000/svg" version="1.1" xmlns:xlink="http://www.w3.org/1999/xlink" overflow="hidden" style="left: 0; top: 0" width="147" height="29" viewBox="0 0 147.81300000000002 29" preserveAspectRatio="none" data-parent="shapge_a90WL0fUjT"><rect fill="rgba(0, 0, 0, 0)" width="147" height="29"></rect> <rect opacity="0"></rect><g transform="translate(0)" data-width="147.81300000000002"><path fill="#623a8e" d="" transform="translate(133.1,25.5)"></path></g></svg></g> <!----></g>  <!----></svg>