<svg data-noselect="" viewBox="0 0 343 321" width="343" height="321" preserveAspectRatio="none" version="1.1" xmlns="http://www.w3.org/2000/svg" style="background: rgba(255, 255, 255, 0);"><defs></defs> <g id="shape_tvOBZH4xXR" transform="translate(30,30) rotate(0,0,0) scale(1,1)" filter="" style="cursor: move; opacity: 1;"><g><rect fill="rgba(0,0,0,0)" width="303" height="246" x="-10" y="-10"></rect><svg version="1.1" id="图层_1" xmlns="http://www.w3.org/2000/svg" xmlns:xlink="http://www.w3.org/1999/xlink" x="0px" y="0px" width="283" height="226" viewBox="0 0 283.46 226.77" style="enable-background:new 0 0 283.46 226.77;" xml:space="preserve" preserveAspectRatio="none" data-parent="shape_tvOBZH4xXR">
<g>
	
		<linearGradient id="SVGID_1_" gradientUnits="userSpaceOnUse" x1="7.2872" y1="-7.4709" x2="70.6848" y2="-7.4709" gradientTransform="matrix(0.9421 -0.386 -0.3457 -0.9752 116.4593 118.897)">
		<stop offset="0" style="stop-color:#E66533"></stop>
		<stop offset="0.3724" style="stop-color:#DC2E80"></stop>
		<stop offset="0.4485" style="stop-color:#D63081"></stop>
		<stop offset="0.5846" style="stop-color:#C23383"></stop>
		<stop offset="0.7648" style="stop-color:#A03888"></stop>
		<stop offset="0.9802" style="stop-color:#683A8D"></stop>
		<stop offset="1" style="stop-color:#623A8E"></stop>
	</linearGradient>
	<path style="fill:url(#SVGID_1_);" d="M126.885,126.127c0,0,20.071,23.836,33.691,11.802c13.624-12.03,25.303-43.963,19.282-54.936
		c-6.017-10.969-20.763-8.7-20.645,9.725C159.294,105.509,152.523,146.793,126.885,126.127z"></path>
	
		<linearGradient id="SVGID_2_" gradientUnits="userSpaceOnUse" x1="101.165" y1="-39.6338" x2="176.5155" y2="-39.6338" gradientTransform="matrix(-0.9666 -0.2564 0.2698 -1.017 278.0613 107.6624)">
		<stop offset="0" style="stop-color:#F2C222"></stop>
		<stop offset="0.153" style="stop-color:#F1BD24"></stop>
		<stop offset="0.3922" style="stop-color:#EEAD27"></stop>
		<stop offset="0.6873" style="stop-color:#EA912A"></stop>
		<stop offset="1" style="stop-color:#E66A2B"></stop>
	</linearGradient>
	<path style="fill:url(#SVGID_2_);" d="M167.525,129.784c0,0-12.808,24.644-35.913,16.696c-24.967-8.587-35.229-50.655-29.24-64.29
		c5.988-13.631,27.24-12.312,27.376,10.817C129.869,113.355,139.706,157.716,167.525,129.784z"></path>
</g>
</svg></g> <!----></g><g id="shapge_a90WL0fUjT" transform="translate(98,262) rotate(0,0,0) scale(1,1)" filter="" style="cursor: move; opacity: 1;"><g><svg xmlns="http://www.w3.org/2000/svg" version="1.1" xmlns:xlink="http://www.w3.org/1999/xlink" overflow="hidden" style="top:0; left: 0" width="147" height="29" viewBox="0 0 147.81300000000002 29" preserveAspectRatio="none" data-parent="shapge_a90WL0fUjT"><rect fill="rgba(0,0,0,0)" width="147" height="29"></rect> <rect opacity="0"></rect><g transform="translate(0 0)" data-width="147.81300000000002"><path fill="#623A8E" d="M9.13 0L6.06 0L0.38-15.75L3.13-15.75L6.09-6.79L6.09-6.79Q6.38-5.92 6.64-5.05L6.64-5.05L6.64-5.05Q7.11-3.54 7.57-2.15L7.57-2.15L7.69-2.15L7.69-2.15Q7.89-2.78 8.09-3.45L8.09-3.45L8.09-3.45Q8.61-5.10 9.13-6.79L9.13-6.79L12.12-15.75L14.73-15.75L9.13 0Z" transform="translate(0 25.52)"></path><path fill="#623A8E" d="M5.31 0L2.67 0L2.67-15.75L5.31-15.75L5.31 0ZM4.00-19.00L4.00-19.00L4.00-19.00Q3.22-19.00 2.70-19.49L2.70-19.49L2.70-19.49Q2.18-19.98 2.18-20.71L2.18-20.71L2.18-20.71Q2.18-22.33 4.00-22.42L4.00-22.42L4.00-22.42Q4.79-22.42 5.31-21.97L5.31-21.97L5.31-21.97Q5.83-21.52 5.83-20.71L5.83-20.71L5.83-20.71Q5.83-19.98 5.31-19.49L5.31-19.49L5.31-19.49Q4.79-19.00 4.00-19.00Z" transform="translate(15.109 25.52)"></path><path fill="#623A8E" d="M8.03 0.38L8.03 0.38L8.03 0.38Q5.08 0.38 3.31-1.77L3.31-1.77L3.31-1.77Q1.54-3.92 1.54-7.86L1.54-7.86L1.54-7.86Q1.54-10.41 2.49-12.27L2.49-12.27L2.49-12.27Q3.45-14.12 5.00-15.14L5.00-15.14L5.00-15.14Q6.55-16.15 8.35-16.15L8.35-16.15L8.35-16.15Q9.74-16.15 10.76-15.66L10.76-15.66L10.76-15.66Q11.77-15.17 12.79-14.30L12.79-14.30L12.64-17.02L12.64-23.08L15.28-23.08L15.28 0L13.14 0L12.88-1.86L12.82-1.86L12.82-1.86Q11.89-0.93 10.67-0.28L10.67-0.28L10.67-0.28Q9.45 0.38 8.03 0.38ZM8.61-1.83L8.61-1.83L8.61-1.83Q10.79-1.83 12.64-4.00L12.64-4.00L12.64-12.27L12.64-12.27Q10.79-13.92 8.82-13.92L8.82-13.92L8.82-13.92Q6.90-13.92 5.58-12.25L5.58-12.25L5.58-12.25Q4.26-10.59 4.26-7.89L4.26-7.89L4.26-7.89Q4.26-5.05 5.39-3.44L5.39-3.44L5.39-3.44Q6.53-1.83 8.61-1.83Z" transform="translate(23.084 25.52)"></path><path fill="#623A8E" d="M9.02 0.38L9.02 0.38L9.02 0.38Q6.93 0.38 5.22-0.59L5.22-0.59L5.22-0.59Q3.51-1.57 2.49-3.42L2.49-3.42L2.49-3.42Q1.48-5.28 1.48-7.86L1.48-7.86L1.48-7.86Q1.48-10.41 2.49-12.27L2.49-12.27L2.49-12.27Q3.51-14.12 5.13-15.14L5.13-15.14L5.13-15.14Q6.76-16.15 8.58-16.15L8.58-16.15L8.58-16.15Q11.60-16.15 13.22-14.14L13.22-14.14L13.22-14.14Q14.85-12.12 14.85-8.76L14.85-8.76L14.85-8.76Q14.85-7.89 14.73-7.25L14.73-7.25L4.12-7.25L4.12-7.25Q4.29-4.70 5.70-3.22L5.70-3.22L5.70-3.22Q7.11-1.74 9.34-1.74L9.34-1.74L9.34-1.74Q10.50-1.74 11.46-2.07L11.46-2.07L11.46-2.07Q12.41-2.41 13.28-2.99L13.28-2.99L14.24-1.25L14.24-1.25Q13.20-0.55 11.92-0.09L11.92-0.09L11.92-0.09Q10.64 0.38 9.02 0.38ZM4.09-9.13L4.09-9.13L12.53-9.13L12.53-9.13Q12.53-13.92 8.61-14.04L8.61-14.04L8.61-14.04Q6.93-14.04 5.66-12.76L5.66-12.76L5.66-12.76Q4.38-11.48 4.09-9.13Z" transform="translate(41.064 25.52)"></path><path fill="#623A8E" d="M8.79 0.38L8.79 0.38L8.79 0.38Q6.87 0.38 5.21-0.59L5.21-0.59L5.21-0.59Q3.54-1.57 2.51-3.41L2.51-3.41L2.51-3.41Q1.48-5.25 1.48-7.86L1.48-7.86L1.48-7.86Q1.48-10.50 2.51-12.34L2.51-12.34L2.51-12.34Q3.54-14.18 5.21-15.17L5.21-15.17L5.21-15.17Q6.87-16.15 8.79-16.15L8.79-16.15L8.79-16.15Q10.73-16.15 12.38-15.17L12.38-15.17L12.38-15.17Q14.04-14.18 15.07-12.34L15.07-12.34L15.07-12.34Q16.10-10.50 16.10-7.86L16.10-7.86L16.10-7.86Q16.10-5.25 15.07-3.41L15.07-3.41L15.07-3.41Q14.04-1.57 12.38-0.59L12.38-0.59L12.38-0.59Q10.73 0.38 8.79 0.38ZM8.79-1.83L8.79-1.83L8.79-1.83Q10.85-1.83 12.11-3.48L12.11-3.48L12.11-3.48Q13.37-5.13 13.37-7.86L13.37-7.86L13.37-7.86Q13.37-10.59 12.11-12.27L12.11-12.27L12.11-12.27Q10.85-13.95 8.79-13.95L8.79-13.95L8.79-13.95Q6.76-13.95 5.50-12.27L5.50-12.27L5.50-12.27Q4.23-10.59 4.23-7.86L4.23-7.86L4.23-7.86Q4.23-5.13 5.50-3.48L5.50-3.48L5.50-3.48Q6.76-1.83 8.79-1.83Z" transform="translate(57.13 25.52)"></path><path fill="#623A8E" d="" transform="translate(74.70400000000001 25.52)"></path><path fill="#623A8E" d="M5.31 6.64L2.67 6.64L2.67-15.75L4.84-15.75L5.08-13.95L5.16-13.95L5.16-13.95Q6.24-14.85 7.53-15.50L7.53-15.50L7.53-15.50Q8.82-16.15 10.18-16.15L10.18-16.15L10.18-16.15Q13.22-16.15 14.83-13.95L14.83-13.95L14.83-13.95Q16.44-11.75 16.44-8.12L16.44-8.12L16.44-8.12Q16.44-5.42 15.49-3.52L15.49-3.52L15.49-3.52Q14.53-1.62 12.98-0.62L12.98-0.62L12.98-0.62Q11.43 0.38 9.60 0.38L9.60 0.38L9.60 0.38Q7.48 0.38 5.25-1.45L5.25-1.45L5.31 1.31L5.31 6.64ZM9.16-1.83L9.16-1.83L9.16-1.83Q11.14-1.83 12.41-3.49L12.41-3.49L12.41-3.49Q13.69-5.16 13.69-8.09L13.69-8.09L13.69-8.09Q13.69-10.70 12.73-12.31L12.73-12.31L12.73-12.31Q11.77-13.92 9.54-13.92L9.54-13.92L9.54-13.92Q7.54-13.92 5.31-11.75L5.31-11.75L5.31-3.48L5.31-3.48Q6.38-2.58 7.38-2.20L7.38-2.20L7.38-2.20Q8.38-1.83 9.16-1.83Z" transform="translate(86.24600000000001 25.52)"></path><path fill="#623A8E" d="M5.31 0L2.67 0L2.67-15.75L4.84-15.75L5.08-12.88L5.16-12.88L5.16-12.88Q6.00-14.38 7.15-15.27L7.15-15.27L7.15-15.27Q8.29-16.15 9.63-16.15L9.63-16.15L9.63-16.15Q10.67-16.15 11.31-15.81L11.31-15.81L10.82-13.49L10.82-13.49Q10.44-13.63 10.11-13.69L10.11-13.69L10.11-13.69Q9.77-13.75 9.28-13.75L9.28-13.75L9.28-13.75Q8.29-13.75 7.21-12.93L7.21-12.93L7.21-12.93Q6.12-12.12 5.31-10.12L5.31-10.12L5.31 0Z" transform="translate(104.22600000000001 25.52)"></path><path fill="#623A8E" d="M8.79 0.38L8.79 0.38L8.79 0.38Q6.87 0.38 5.21-0.59L5.21-0.59L5.21-0.59Q3.54-1.57 2.51-3.41L2.51-3.41L2.51-3.41Q1.48-5.25 1.48-7.86L1.48-7.86L1.48-7.86Q1.48-10.50 2.51-12.34L2.51-12.34L2.51-12.34Q3.54-14.18 5.21-15.17L5.21-15.17L5.21-15.17Q6.87-16.15 8.79-16.15L8.79-16.15L8.79-16.15Q10.73-16.15 12.38-15.17L12.38-15.17L12.38-15.17Q14.04-14.18 15.07-12.34L15.07-12.34L15.07-12.34Q16.10-10.50 16.10-7.86L16.10-7.86L16.10-7.86Q16.10-5.25 15.07-3.41L15.07-3.41L15.07-3.41Q14.04-1.57 12.38-0.59L12.38-0.59L12.38-0.59Q10.73 0.38 8.79 0.38ZM8.79-1.83L8.79-1.83L8.79-1.83Q10.85-1.83 12.11-3.48L12.11-3.48L12.11-3.48Q13.37-5.13 13.37-7.86L13.37-7.86L13.37-7.86Q13.37-10.59 12.11-12.27L12.11-12.27L12.11-12.27Q10.85-13.95 8.79-13.95L8.79-13.95L8.79-13.95Q6.76-13.95 5.50-12.27L5.50-12.27L5.50-12.27Q4.23-10.59 4.23-7.86L4.23-7.86L4.23-7.86Q4.23-5.13 5.50-3.48L5.50-3.48L5.50-3.48Q6.76-1.83 8.79-1.83Z" transform="translate(115.47800000000001 25.52)"></path><path fill="#623A8E" d="M8.87 0.38L8.87 0.38L8.87 0.38Q6.79 0.38 5.12-0.59L5.12-0.59L5.12-0.59Q3.45-1.57 2.47-3.41L2.47-3.41L2.47-3.41Q1.48-5.25 1.48-7.86L1.48-7.86L1.48-7.86Q1.48-10.50 2.54-12.34L2.54-12.34L2.54-12.34Q3.60-14.18 5.34-15.17L5.34-15.17L5.34-15.17Q7.08-16.15 9.08-16.15L9.08-16.15L9.08-16.15Q10.61-16.15 11.73-15.60L11.73-15.60L11.73-15.60Q12.85-15.05 13.69-14.30L13.69-14.30L12.33-12.53L12.33-12.53Q11.63-13.17 10.88-13.56L10.88-13.56L10.88-13.56Q10.12-13.95 9.16-13.95L9.16-13.95L9.16-13.95Q7.05-13.95 5.64-12.27L5.64-12.27L5.64-12.27Q4.23-10.59 4.23-7.86L4.23-7.86L4.23-7.86Q4.23-5.13 5.58-3.48L5.58-3.48L5.58-3.48Q6.93-1.83 9.11-1.83L9.11-1.83L9.11-1.83Q10.21-1.83 11.14-2.26L11.14-2.26L11.14-2.26Q12.06-2.70 12.82-3.39L12.82-3.39L13.95-1.62L13.95-1.62Q11.72 0.38 8.87 0.38Z" transform="translate(133.05200000000002 25.52)"></path></g></svg></g> <!----></g>  <!----></svg>